<svg width="1200" height="220" viewBox="0 0 1200 220" xmlns="http://www.w3.org/2000/svg">
  <rect width="1200" height="220" fill="#0b1019"/>
  <text x="40" y="45" fill="#e9efff" font-size="28" font-family="Arial" font-weight="700">Inference Architecture</text>

  <rect x="40" y="90" width="180" height="78" rx="12" fill="#1c2638" stroke="#334562"/>
  <text x="88" y="136" fill="#e9efff" font-size="18" font-family="Arial">User Text</text>

  <rect x="280" y="90" width="180" height="78" rx="12" fill="#1c2638" stroke="#334562"/>
  <text x="328" y="136" fill="#e9efff" font-size="18" font-family="Arial">Tokenizer</text>

  <rect x="520" y="90" width="220" height="78" rx="12" fill="#1c2638" stroke="#334562"/>
  <text x="564" y="136" fill="#e9efff" font-size="18" font-family="Arial">DistilBERT</text>

  <rect x="800" y="90" width="160" height="78" rx="12" fill="#1c2638" stroke="#334562"/>
  <text x="838" y="136" fill="#e9efff" font-size="18" font-family="Arial">Softmax</text>

  <rect x="1020" y="90" width="150" height="78" rx="12" fill="#1c2638" stroke="#334562"/>
  <text x="1052" y="124" fill="#e9efff" font-size="15" font-family="Arial">Sentiment</text>
  <text x="1064" y="145" fill="#e9efff" font-size="15" font-family="Arial">JSON</text>

  <path d="M220 129 H272" stroke="#5f83bc" stroke-width="3" marker-end="url(#arrow)"/>
  <path d="M460 129 H512" stroke="#5f83bc" stroke-width="3" marker-end="url(#arrow)"/>
  <path d="M740 129 H792" stroke="#5f83bc" stroke-width="3" marker-end="url(#arrow)"/>
  <path d="M960 129 H1012" stroke="#5f83bc" stroke-width="3" marker-end="url(#arrow)"/>

  <defs>
    <marker id="arrow" markerWidth="10" markerHeight="8" refX="10" refY="4" orient="auto">
      <polygon points="0 0, 10 4, 0 8" fill="#5f83bc"/>
    </marker>
  </defs>
</svg>
